<svg xmlns="http://www.w3.org/2000/svg" version="1.1" xmlns:xlink="http://www.w3.org/1999/xlink" xmlns:svgjs="http://svgjs.dev/svgjs" width="1440" height="400" preserveAspectRatio="none" viewBox="0 0 1440 400"><g mask="url(&quot;#SvgjsMask1042&quot;)" fill="none"><path d="M1272.86-16.36C1084.2-13.16 925.43 221.99 557.54 224.41 189.66 226.83 22.94 328.14-157.77 328.41" stroke="rgba(20, 99, 181, 0.58)" stroke-width="2"></path><path d="M918.34-3.99C825.94 1.41 837.91 170.79 592.04 170.9 346.17 171.01 103.81 91.05-60.56 90.9" stroke="rgba(20, 99, 181, 0.58)" stroke-width="2"></path><path d="M596.05-17.92C508.34-4.23 545.67 199.32 321.16 206.86 96.65 214.4-87.28 337.94-228.63 338.86" stroke="rgba(20, 99, 181, 0.58)" stroke-width="2"></path><path d="M1066.83-29.81C891.39-23 750.37 261.8 428.14 262.19 105.91 262.58-48.08 142.71-210.55 142.19" stroke="rgba(20, 99, 181, 0.58)" stroke-width="2"></path><path d="M658.19-67.42C542.33-60.48 475.82 143.84 249.9 153.61 23.98 163.38-48.06 318.37-158.39 321.61" stroke="rgba(20, 99, 181, 0.58)" stroke-width="2"></path></g><defs><mask id="SvgjsMask1042"><rect width="1440" height="400" fill="#ffffff"></rect></mask></defs></svg>